<?xml version="1.0" encoding="UTF-8" standalone="no"?>
<!DOCTYPE svg PUBLIC "-//W3C//DTD SVG 1.1//EN"
 "http://www.w3.org/Graphics/SVG/1.1/DTD/svg11.dtd">
<!-- Generated by graphviz version 2.43.0 (0)
 -->
<!-- Title: G Pages: 1 -->
<svg width="189pt" height="392pt"
 viewBox="0.00 0.00 189.00 392.00" xmlns="http://www.w3.org/2000/svg" xmlns:xlink="http://www.w3.org/1999/xlink">
<g id="graph0" class="graph" transform="scale(1 1) rotate(0) translate(4 388)">
<title>G</title>
<polygon fill="white" stroke="transparent" points="-4,4 -4,-388 185,-388 185,4 -4,4"/>
<!-- 0 -->
<g id="node1" class="node">
<title>0</title>
<ellipse fill="none" stroke="black" cx="90" cy="-366" rx="27" ry="18"/>
<text text-anchor="middle" x="90" y="-362.3" font-family="Times,serif" font-size="14.00">0</text>
</g>
<!-- 2 -->
<g id="node2" class="node">
<title>2</title>
<ellipse fill="none" stroke="black" cx="27" cy="-192" rx="27" ry="18"/>
<text text-anchor="middle" x="27" y="-188.3" font-family="Times,serif" font-size="14.00">2</text>
</g>
<!-- 0&#45;&gt;2 -->
<g id="edge1" class="edge">
<title>0&#45;&gt;2</title>
<path fill="none" stroke="black" d="M74.7,-350.99C61.92,-338.27 44.47,-318.29 36,-297 26.2,-272.37 24.66,-241.93 25.14,-220.36"/>
<polygon fill="black" stroke="black" points="28.64,-220.39 25.53,-210.26 21.65,-220.12 28.64,-220.39"/>
<text text-anchor="middle" x="45" y="-275.3" font-family="Times,serif" font-size="14.00">8a</text>
</g>
<!-- 3 -->
<g id="node3" class="node">
<title>3</title>
<ellipse fill="none" stroke="black" cx="90" cy="-279" rx="27" ry="18"/>
<text text-anchor="middle" x="90" y="-275.3" font-family="Times,serif" font-size="14.00">3</text>
</g>
<!-- 0&#45;&gt;3 -->
<g id="edge2" class="edge">
<title>0&#45;&gt;3</title>
<path fill="none" stroke="black" d="M90,-347.8C90,-336.16 90,-320.55 90,-307.24"/>
<polygon fill="black" stroke="black" points="93.5,-307.18 90,-297.18 86.5,-307.18 93.5,-307.18"/>
<text text-anchor="middle" x="103.5" y="-318.8" font-family="Times,serif" font-size="14.00">10a</text>
</g>
<!-- 1 -->
<g id="node4" class="node">
<title>1</title>
<ellipse fill="none" stroke="black" cx="154" cy="-192" rx="27" ry="18"/>
<text text-anchor="middle" x="154" y="-188.3" font-family="Times,serif" font-size="14.00">1</text>
</g>
<!-- 0&#45;&gt;1 -->
<g id="edge3" class="edge">
<title>0&#45;&gt;1</title>
<path fill="none" stroke="black" d="M104.99,-350.69C110.6,-344.71 116.66,-337.43 121,-330 141.62,-294.68 143.03,-283.12 151,-243 152.43,-235.78 153.25,-227.87 153.69,-220.51"/>
<polygon fill="black" stroke="black" points="157.2,-220.41 154.12,-210.27 150.21,-220.12 157.2,-220.41"/>
<text text-anchor="middle" x="156" y="-275.3" font-family="Times,serif" font-size="14.00">7a</text>
</g>
<!-- 4 -->
<g id="node5" class="node">
<title>4</title>
<ellipse fill="none" stroke="black" cx="92" cy="-105" rx="27" ry="18"/>
<text text-anchor="middle" x="92" y="-101.3" font-family="Times,serif" font-size="14.00">4</text>
</g>
<!-- 2&#45;&gt;4 -->
<g id="edge4" class="edge">
<title>2&#45;&gt;4</title>
<path fill="none" stroke="black" d="M32.14,-174.18C35.8,-163.94 41.41,-150.96 49,-141 53.57,-135 59.37,-129.39 65.23,-124.5"/>
<polygon fill="black" stroke="black" points="67.42,-127.23 73.12,-118.3 63.1,-121.72 67.42,-127.23"/>
<text text-anchor="middle" x="62.5" y="-144.8" font-family="Times,serif" font-size="14.00">12a</text>
</g>
<!-- 3&#45;&gt;2 -->
<g id="edge6" class="edge">
<title>3&#45;&gt;2</title>
<path fill="none" stroke="black" d="M75.66,-263.54C69.9,-257.43 63.37,-250.09 58,-243 52.09,-235.19 46.26,-226.21 41.27,-218.04"/>
<polygon fill="black" stroke="black" points="44.17,-216.07 36.05,-209.26 38.15,-219.65 44.17,-216.07"/>
<text text-anchor="middle" x="67" y="-231.8" font-family="Times,serif" font-size="14.00">2a</text>
</g>
<!-- 3&#45;&gt;1 -->
<g id="edge7" class="edge">
<title>3&#45;&gt;1</title>
<path fill="none" stroke="black" d="M100.28,-261.92C106.81,-251.96 115.58,-239.01 124,-228 127.06,-224 130.43,-219.85 133.77,-215.87"/>
<polygon fill="black" stroke="black" points="136.64,-217.9 140.48,-208.03 131.32,-213.35 136.64,-217.9"/>
<text text-anchor="middle" x="137.5" y="-231.8" font-family="Times,serif" font-size="14.00">11a</text>
</g>
<!-- 3&#45;&gt;4 -->
<g id="edge5" class="edge">
<title>3&#45;&gt;4</title>
<path fill="none" stroke="black" d="M90.2,-260.88C90.55,-231 91.27,-169.11 91.68,-133.27"/>
<polygon fill="black" stroke="black" points="95.19,-133.09 91.8,-123.05 88.19,-133.01 95.19,-133.09"/>
<text text-anchor="middle" x="100" y="-188.3" font-family="Times,serif" font-size="14.00">5a</text>
</g>
<!-- 1&#45;&gt;4 -->
<g id="edge8" class="edge">
<title>1&#45;&gt;4</title>
<path fill="none" stroke="black" d="M140.38,-176.05C135.07,-169.98 129.06,-162.81 124,-156 118.11,-148.07 112.14,-139.06 106.98,-130.9"/>
<polygon fill="black" stroke="black" points="109.79,-128.79 101.54,-122.14 103.84,-132.48 109.79,-128.79"/>
<text text-anchor="middle" x="133" y="-144.8" font-family="Times,serif" font-size="14.00">1a</text>
</g>
<!-- 5 -->
<g id="node6" class="node">
<title>5</title>
<ellipse fill="none" stroke="black" cx="125" cy="-18" rx="27" ry="18"/>
<text text-anchor="middle" x="125" y="-14.3" font-family="Times,serif" font-size="14.00">5</text>
</g>
<!-- 1&#45;&gt;5 -->
<g id="edge9" class="edge">
<title>1&#45;&gt;5</title>
<path fill="none" stroke="black" d="M154.19,-173.8C154.07,-147.53 152.25,-96 141,-54 140.18,-50.94 139.11,-47.81 137.92,-44.74"/>
<polygon fill="black" stroke="black" points="141.02,-43.09 133.83,-35.31 134.6,-45.88 141.02,-43.09"/>
<text text-anchor="middle" x="164.5" y="-101.3" font-family="Times,serif" font-size="14.00">21a</text>
</g>
<!-- 4&#45;&gt;5 -->
<g id="edge10" class="edge">
<title>4&#45;&gt;5</title>
<path fill="none" stroke="black" d="M98.52,-87.21C103.18,-75.22 109.53,-58.85 114.84,-45.16"/>
<polygon fill="black" stroke="black" points="118.14,-46.35 118.49,-35.76 111.61,-43.81 118.14,-46.35"/>
<text text-anchor="middle" x="123.5" y="-57.8" font-family="Times,serif" font-size="14.00">14a</text>
</g>
</g>
</svg>
