<?xml version="1.0" encoding="UTF-8" standalone="no"?>
<!DOCTYPE svg PUBLIC "-//W3C//DTD SVG 1.1//EN"
 "http://www.w3.org/Graphics/SVG/1.1/DTD/svg11.dtd">
<!-- Generated by graphviz version 2.43.0 (0)
 -->
<!-- Title: G Pages: 1 -->
<svg width="435pt" height="479pt"
 viewBox="0.00 0.00 435.00 479.00" xmlns="http://www.w3.org/2000/svg" xmlns:xlink="http://www.w3.org/1999/xlink">
<g id="graph0" class="graph" transform="scale(1 1) rotate(0) translate(4 475)">
<title>G</title>
<polygon fill="white" stroke="transparent" points="-4,4 -4,-475 431,-475 431,4 -4,4"/>
<!-- 2 -->
<g id="node1" class="node">
<title>2</title>
<ellipse fill="none" stroke="black" cx="221" cy="-453" rx="27" ry="18"/>
<text text-anchor="middle" x="221" y="-449.3" font-family="Times,serif" font-size="14.00">2</text>
</g>
<!-- 0 -->
<g id="node2" class="node">
<title>0</title>
<ellipse fill="none" stroke="black" cx="222" cy="-366" rx="27" ry="18"/>
<text text-anchor="middle" x="222" y="-362.3" font-family="Times,serif" font-size="14.00">0</text>
</g>
<!-- 2&#45;&gt;0 -->
<g id="edge1" class="edge">
<title>2&#45;&gt;0</title>
<path fill="none" stroke="black" d="M211.85,-435.95C207.4,-426.23 203.49,-413.51 206,-402 206.67,-398.9 207.65,-395.75 208.79,-392.67"/>
<polygon fill="black" stroke="black" points="212.11,-393.8 212.83,-383.23 205.68,-391.04 212.11,-393.8"/>
<text text-anchor="middle" x="211" y="-405.8" font-family="Times,serif" font-size="14.00">8</text>
</g>
<!-- 3 -->
<g id="node3" class="node">
<title>3</title>
<ellipse fill="none" stroke="black" cx="244" cy="-18" rx="27" ry="18"/>
<text text-anchor="middle" x="244" y="-14.3" font-family="Times,serif" font-size="14.00">3</text>
</g>
<!-- 2&#45;&gt;3 -->
<g id="edge2" class="edge">
<title>2&#45;&gt;3</title>
<path fill="none" stroke="black" d="M193.98,-450.64C159.88,-447.98 100.23,-440.14 55,-417 25.59,-401.96 0,-400.04 0,-367 0,-367 0,-367 0,-104 0,-60.67 138.92,-34.34 207.12,-24.02"/>
<polygon fill="black" stroke="black" points="208.04,-27.42 217.42,-22.5 207.02,-20.49 208.04,-27.42"/>
<text text-anchor="middle" x="5" y="-231.8" font-family="Times,serif" font-size="14.00">1</text>
</g>
<!-- 4 -->
<g id="node4" class="node">
<title>4</title>
<ellipse fill="none" stroke="black" cx="199" cy="-105" rx="27" ry="18"/>
<text text-anchor="middle" x="199" y="-101.3" font-family="Times,serif" font-size="14.00">4</text>
</g>
<!-- 2&#45;&gt;4 -->
<g id="edge3" class="edge">
<title>2&#45;&gt;4</title>
<path fill="none" stroke="black" d="M247.8,-449.68C292.88,-444.14 379,-425.87 379,-367 379,-367 379,-367 379,-191 379,-128.31 288.61,-111.78 235.94,-107.48"/>
<polygon fill="black" stroke="black" points="236.17,-103.98 225.95,-106.77 235.68,-110.97 236.17,-103.98"/>
<text text-anchor="middle" x="384" y="-275.3" font-family="Times,serif" font-size="14.00">3</text>
</g>
<!-- 0&#45;&gt;2 -->
<g id="edge11" class="edge">
<title>0&#45;&gt;2</title>
<path fill="none" stroke="black" d="M221.8,-384.18C221.66,-395.81 221.48,-411.42 221.32,-424.73"/>
<polygon fill="black" stroke="black" points="217.82,-424.76 221.2,-434.8 224.82,-424.84 217.82,-424.76"/>
<text text-anchor="middle" x="226" y="-405.8" font-family="Times,serif" font-size="14.00">0</text>
</g>
<!-- 0&#45;&gt;3 -->
<g id="edge12" class="edge">
<title>0&#45;&gt;3</title>
<path fill="none" stroke="black" d="M230.85,-348.8C238.36,-335.03 249.41,-314.73 259,-297 279.7,-258.7 292.31,-251.93 304,-210 310.47,-186.78 307.89,-180.08 309,-156 311.14,-109.67 314.38,-91.43 287,-54 282.55,-47.91 276.79,-42.27 270.94,-37.37"/>
<polygon fill="black" stroke="black" points="273.07,-34.59 263.03,-31.18 268.75,-40.1 273.07,-34.59"/>
<text text-anchor="middle" x="313" y="-188.3" font-family="Times,serif" font-size="14.00">0</text>
</g>
<!-- 1 -->
<g id="node6" class="node">
<title>1</title>
<ellipse fill="none" stroke="black" cx="223" cy="-279" rx="27" ry="18"/>
<text text-anchor="middle" x="223" y="-275.3" font-family="Times,serif" font-size="14.00">1</text>
</g>
<!-- 0&#45;&gt;1 -->
<g id="edge13" class="edge">
<title>0&#45;&gt;1</title>
<path fill="none" stroke="black" d="M212.85,-348.95C208.4,-339.23 204.49,-326.51 207,-315 207.67,-311.9 208.65,-308.75 209.79,-305.67"/>
<polygon fill="black" stroke="black" points="213.11,-306.8 213.83,-296.23 206.68,-304.04 213.11,-306.8"/>
<text text-anchor="middle" x="212" y="-318.8" font-family="Times,serif" font-size="14.00">0</text>
</g>
<!-- 3&#45;&gt;2 -->
<g id="edge8" class="edge">
<title>3&#45;&gt;2</title>
<path fill="none" stroke="black" d="M271.03,-20.23C319.69,-24.06 417,-39.75 417,-104 417,-367 417,-367 417,-367 417,-435.44 315.18,-449.38 258.31,-451.83"/>
<polygon fill="black" stroke="black" points="258.13,-448.33 248.25,-452.16 258.36,-455.33 258.13,-448.33"/>
<text text-anchor="middle" x="422" y="-231.8" font-family="Times,serif" font-size="14.00">1</text>
</g>
<!-- 3&#45;&gt;0 -->
<g id="edge9" class="edge">
<title>3&#45;&gt;0</title>
<path fill="none" stroke="black" d="M217.52,-21.77C173.97,-27.96 92,-47.16 92,-104 92,-280 92,-280 92,-280 92,-325.3 147.98,-347.75 186.47,-357.83"/>
<polygon fill="black" stroke="black" points="185.77,-361.26 196.32,-360.24 187.44,-354.46 185.77,-361.26"/>
<text text-anchor="middle" x="101.5" y="-188.3" font-family="Times,serif" font-size="14.00">10</text>
</g>
<!-- 3&#45;&gt;4 -->
<g id="edge7" class="edge">
<title>3&#45;&gt;4</title>
<path fill="none" stroke="black" d="M235.35,-35.34C228.88,-47.56 219.92,-64.49 212.51,-78.49"/>
<polygon fill="black" stroke="black" points="209.26,-77.14 207.68,-87.61 215.45,-80.41 209.26,-77.14"/>
<text text-anchor="middle" x="229" y="-57.8" font-family="Times,serif" font-size="14.00">0</text>
</g>
<!-- 3&#45;&gt;1 -->
<g id="edge10" class="edge">
<title>3&#45;&gt;1</title>
<path fill="none" stroke="black" d="M258.53,-33.37C263.49,-39.25 268.42,-46.45 271,-54 298.1,-133.51 309.07,-168.12 271,-243 267,-250.86 260.32,-257.38 253.19,-262.57"/>
<polygon fill="black" stroke="black" points="251.22,-259.67 244.75,-268.06 255.04,-265.54 251.22,-259.67"/>
<text text-anchor="middle" x="300" y="-144.8" font-family="Times,serif" font-size="14.00">7</text>
</g>
<!-- 4&#45;&gt;2 -->
<g id="edge5" class="edge">
<title>4&#45;&gt;2</title>
<path fill="none" stroke="black" d="M172.35,-108.71C128.51,-114.81 46,-133.87 46,-191 46,-367 46,-367 46,-367 46,-427.83 132.61,-445.14 183.97,-450.06"/>
<polygon fill="black" stroke="black" points="183.78,-453.55 194.04,-450.91 184.37,-446.58 183.78,-453.55"/>
<text text-anchor="middle" x="51" y="-275.3" font-family="Times,serif" font-size="14.00">9</text>
</g>
<!-- 4&#45;&gt;3 -->
<g id="edge4" class="edge">
<title>4&#45;&gt;3</title>
<path fill="none" stroke="black" d="M195.85,-86.94C194.82,-76.85 195,-64.12 200,-54 203.45,-47.02 209.02,-41 215.06,-36"/>
<polygon fill="black" stroke="black" points="217.44,-38.6 223.42,-29.85 213.29,-32.96 217.44,-38.6"/>
<text text-anchor="middle" x="205" y="-57.8" font-family="Times,serif" font-size="14.00">5</text>
</g>
<!-- 5 -->
<g id="node5" class="node">
<title>5</title>
<ellipse fill="none" stroke="black" cx="202" cy="-192" rx="27" ry="18"/>
<text text-anchor="middle" x="202" y="-188.3" font-family="Times,serif" font-size="14.00">5</text>
</g>
<!-- 4&#45;&gt;5 -->
<g id="edge6" class="edge">
<title>4&#45;&gt;5</title>
<path fill="none" stroke="black" d="M188.48,-122.04C183.37,-131.77 178.94,-144.48 182,-156 182.93,-159.49 184.29,-162.99 185.88,-166.36"/>
<polygon fill="black" stroke="black" points="182.93,-168.26 190.77,-175.38 189.08,-164.93 182.93,-168.26"/>
<text text-anchor="middle" x="187" y="-144.8" font-family="Times,serif" font-size="14.00">0</text>
</g>
<!-- 5&#45;&gt;4 -->
<g id="edge18" class="edge">
<title>5&#45;&gt;4</title>
<path fill="none" stroke="black" d="M201.39,-173.8C200.98,-162.16 200.43,-146.55 199.96,-133.24"/>
<polygon fill="black" stroke="black" points="203.46,-133.05 199.61,-123.18 196.46,-133.29 203.46,-133.05"/>
<text text-anchor="middle" x="209.5" y="-144.8" font-family="Times,serif" font-size="14.00">14</text>
</g>
<!-- 5&#45;&gt;1 -->
<g id="edge19" class="edge">
<title>5&#45;&gt;1</title>
<path fill="none" stroke="black" d="M206.21,-210.05C209.14,-221.91 213.11,-237.95 216.45,-251.47"/>
<polygon fill="black" stroke="black" points="213.05,-252.34 218.85,-261.21 219.85,-250.66 213.05,-252.34"/>
<text text-anchor="middle" x="222.5" y="-231.8" font-family="Times,serif" font-size="14.00">11</text>
</g>
<!-- 1&#45;&gt;0 -->
<g id="edge16" class="edge">
<title>1&#45;&gt;0</title>
<path fill="none" stroke="black" d="M222.8,-297.18C222.66,-308.81 222.48,-324.42 222.32,-337.73"/>
<polygon fill="black" stroke="black" points="218.82,-337.76 222.2,-347.8 225.82,-337.84 218.82,-337.76"/>
<text text-anchor="middle" x="227" y="-318.8" font-family="Times,serif" font-size="14.00">7</text>
</g>
<!-- 1&#45;&gt;3 -->
<g id="edge15" class="edge">
<title>1&#45;&gt;3</title>
<path fill="none" stroke="black" d="M230.24,-261.56C232.48,-255.8 234.69,-249.22 236,-243 239.04,-228.62 237.32,-224.68 238,-210 240.68,-151.63 242.52,-83.18 243.4,-46.14"/>
<polygon fill="black" stroke="black" points="246.9,-46.21 243.63,-36.13 239.9,-46.04 246.9,-46.21"/>
<text text-anchor="middle" x="245" y="-144.8" font-family="Times,serif" font-size="14.00">4</text>
</g>
<!-- 1&#45;&gt;4 -->
<g id="edge14" class="edge">
<title>1&#45;&gt;4</title>
<path fill="none" stroke="black" d="M203.28,-266.35C193.96,-260.2 183.13,-252.06 175,-243 163.69,-230.41 160.37,-226.35 156,-210 151.87,-194.54 151.69,-189.41 156,-174 160.61,-157.48 166.84,-155.5 176,-141 178.17,-137.57 180.48,-133.97 182.77,-130.45"/>
<polygon fill="black" stroke="black" points="185.79,-132.23 188.34,-121.95 179.93,-128.39 185.79,-132.23"/>
<text text-anchor="middle" x="161" y="-188.3" font-family="Times,serif" font-size="14.00">1</text>
</g>
<!-- 1&#45;&gt;5 -->
<g id="edge17" class="edge">
<title>1&#45;&gt;5</title>
<path fill="none" stroke="black" d="M203.27,-266.58C195.09,-260.69 186.47,-252.69 182,-243 178.13,-234.61 180.23,-225.25 184.26,-216.91"/>
<polygon fill="black" stroke="black" points="187.42,-218.45 189.43,-208.05 181.37,-214.93 187.42,-218.45"/>
<text text-anchor="middle" x="191.5" y="-231.8" font-family="Times,serif" font-size="14.00">10</text>
</g>
</g>
</svg>
